<mxfile host="app.diagrams.net" modified="2022-05-07T01:47:08.252Z" agent="5.0 (Windows NT 10.0; Win64; x64) AppleWebKit/537.36 (KHTML, like Gecko) Chrome/99.0.4844.51 Safari/537.36" etag="_MKtxN1_BLLt5fABZIZg" version="17.5.0" type="github">
  <diagram id="fF51GRoH1NtQrKJgF3Km" name="Page-1">
    <mxGraphModel dx="1422" dy="772" grid="1" gridSize="10" guides="1" tooltips="1" connect="1" arrows="1" fold="1" page="1" pageScale="1" pageWidth="827" pageHeight="1169" math="0" shadow="0">
      <root>
        <mxCell id="0" />
        <mxCell id="1" parent="0" />
        <mxCell id="AYY8qbQIV_LYe4IVPq_a-13" style="edgeStyle=orthogonalEdgeStyle;rounded=0;orthogonalLoop=1;jettySize=auto;html=1;exitX=0.5;exitY=1;exitDx=0;exitDy=0;entryX=0.5;entryY=0;entryDx=0;entryDy=0;" parent="1" source="AYY8qbQIV_LYe4IVPq_a-1" target="AYY8qbQIV_LYe4IVPq_a-3" edge="1">
          <mxGeometry relative="1" as="geometry" />
        </mxCell>
        <mxCell id="AYY8qbQIV_LYe4IVPq_a-14" style="edgeStyle=orthogonalEdgeStyle;rounded=0;orthogonalLoop=1;jettySize=auto;html=1;exitX=0.5;exitY=1;exitDx=0;exitDy=0;" parent="1" source="AYY8qbQIV_LYe4IVPq_a-1" target="AYY8qbQIV_LYe4IVPq_a-4" edge="1">
          <mxGeometry relative="1" as="geometry" />
        </mxCell>
        <mxCell id="AYY8qbQIV_LYe4IVPq_a-15" style="edgeStyle=orthogonalEdgeStyle;rounded=0;orthogonalLoop=1;jettySize=auto;html=1;exitX=0.5;exitY=1;exitDx=0;exitDy=0;entryX=0.5;entryY=0;entryDx=0;entryDy=0;" parent="1" source="AYY8qbQIV_LYe4IVPq_a-1" target="AYY8qbQIV_LYe4IVPq_a-5" edge="1">
          <mxGeometry relative="1" as="geometry" />
        </mxCell>
        <mxCell id="AYY8qbQIV_LYe4IVPq_a-16" style="edgeStyle=orthogonalEdgeStyle;rounded=0;orthogonalLoop=1;jettySize=auto;html=1;exitX=0.5;exitY=1;exitDx=0;exitDy=0;entryX=0.5;entryY=0;entryDx=0;entryDy=0;" parent="1" source="AYY8qbQIV_LYe4IVPq_a-1" target="AYY8qbQIV_LYe4IVPq_a-6" edge="1">
          <mxGeometry relative="1" as="geometry" />
        </mxCell>
        <mxCell id="AYY8qbQIV_LYe4IVPq_a-17" style="edgeStyle=orthogonalEdgeStyle;rounded=0;orthogonalLoop=1;jettySize=auto;html=1;exitX=0.5;exitY=1;exitDx=0;exitDy=0;entryX=0.5;entryY=0;entryDx=0;entryDy=0;" parent="1" source="AYY8qbQIV_LYe4IVPq_a-1" target="AYY8qbQIV_LYe4IVPq_a-7" edge="1">
          <mxGeometry relative="1" as="geometry" />
        </mxCell>
        <mxCell id="AYY8qbQIV_LYe4IVPq_a-34" style="edgeStyle=orthogonalEdgeStyle;rounded=0;orthogonalLoop=1;jettySize=auto;html=1;exitX=0.5;exitY=1;exitDx=0;exitDy=0;entryX=0.5;entryY=0;entryDx=0;entryDy=0;" parent="1" source="AYY8qbQIV_LYe4IVPq_a-1" target="AYY8qbQIV_LYe4IVPq_a-33" edge="1">
          <mxGeometry relative="1" as="geometry">
            <Array as="points">
              <mxPoint x="312" y="80" />
              <mxPoint x="680" y="80" />
            </Array>
          </mxGeometry>
        </mxCell>
        <mxCell id="AYY8qbQIV_LYe4IVPq_a-1" value="main" style="rounded=1;whiteSpace=wrap;html=1;" parent="1" vertex="1">
          <mxGeometry x="267" y="30" width="90" height="30" as="geometry" />
        </mxCell>
        <mxCell id="AYY8qbQIV_LYe4IVPq_a-18" value="" style="edgeStyle=orthogonalEdgeStyle;rounded=0;orthogonalLoop=1;jettySize=auto;html=1;" parent="1" source="AYY8qbQIV_LYe4IVPq_a-3" target="AYY8qbQIV_LYe4IVPq_a-8" edge="1">
          <mxGeometry relative="1" as="geometry" />
        </mxCell>
        <mxCell id="AYY8qbQIV_LYe4IVPq_a-3" value="pthread1" style="rounded=1;whiteSpace=wrap;html=1;fillColor=#1ba1e2;fontColor=#ffffff;strokeColor=#006EAF;" parent="1" vertex="1">
          <mxGeometry x="30" y="100" width="90" height="30" as="geometry" />
        </mxCell>
        <mxCell id="AYY8qbQIV_LYe4IVPq_a-19" value="" style="edgeStyle=orthogonalEdgeStyle;rounded=0;orthogonalLoop=1;jettySize=auto;html=1;" parent="1" source="AYY8qbQIV_LYe4IVPq_a-4" target="AYY8qbQIV_LYe4IVPq_a-9" edge="1">
          <mxGeometry relative="1" as="geometry" />
        </mxCell>
        <mxCell id="AYY8qbQIV_LYe4IVPq_a-4" value="pthread2" style="rounded=1;whiteSpace=wrap;html=1;fillColor=#1ba1e2;fontColor=#ffffff;strokeColor=#006EAF;" parent="1" vertex="1">
          <mxGeometry x="149" y="100" width="90" height="30" as="geometry" />
        </mxCell>
        <mxCell id="AYY8qbQIV_LYe4IVPq_a-20" value="" style="edgeStyle=orthogonalEdgeStyle;rounded=0;orthogonalLoop=1;jettySize=auto;html=1;" parent="1" source="AYY8qbQIV_LYe4IVPq_a-5" target="AYY8qbQIV_LYe4IVPq_a-10" edge="1">
          <mxGeometry relative="1" as="geometry" />
        </mxCell>
        <mxCell id="AYY8qbQIV_LYe4IVPq_a-5" value="pthread3" style="rounded=1;whiteSpace=wrap;html=1;fillColor=#1ba1e2;fontColor=#ffffff;strokeColor=#006EAF;" parent="1" vertex="1">
          <mxGeometry x="267" y="100" width="90" height="30" as="geometry" />
        </mxCell>
        <mxCell id="AYY8qbQIV_LYe4IVPq_a-21" value="" style="edgeStyle=orthogonalEdgeStyle;rounded=0;orthogonalLoop=1;jettySize=auto;html=1;" parent="1" source="AYY8qbQIV_LYe4IVPq_a-6" target="AYY8qbQIV_LYe4IVPq_a-11" edge="1">
          <mxGeometry relative="1" as="geometry" />
        </mxCell>
        <mxCell id="AYY8qbQIV_LYe4IVPq_a-6" value="pthread4" style="rounded=1;whiteSpace=wrap;html=1;fillColor=#1ba1e2;fontColor=#ffffff;strokeColor=#006EAF;" parent="1" vertex="1">
          <mxGeometry x="386" y="100" width="90" height="30" as="geometry" />
        </mxCell>
        <mxCell id="AYY8qbQIV_LYe4IVPq_a-22" value="" style="edgeStyle=orthogonalEdgeStyle;rounded=0;orthogonalLoop=1;jettySize=auto;html=1;" parent="1" source="AYY8qbQIV_LYe4IVPq_a-7" target="AYY8qbQIV_LYe4IVPq_a-12" edge="1">
          <mxGeometry relative="1" as="geometry" />
        </mxCell>
        <mxCell id="AYY8qbQIV_LYe4IVPq_a-7" value="pthread5" style="rounded=1;whiteSpace=wrap;html=1;fillColor=#1ba1e2;fontColor=#ffffff;strokeColor=#006EAF;" parent="1" vertex="1">
          <mxGeometry x="514" y="100" width="90" height="30" as="geometry" />
        </mxCell>
        <mxCell id="AYY8qbQIV_LYe4IVPq_a-29" value="" style="edgeStyle=orthogonalEdgeStyle;rounded=0;orthogonalLoop=1;jettySize=auto;html=1;" parent="1" source="AYY8qbQIV_LYe4IVPq_a-8" target="AYY8qbQIV_LYe4IVPq_a-23" edge="1">
          <mxGeometry relative="1" as="geometry" />
        </mxCell>
        <mxCell id="AYY8qbQIV_LYe4IVPq_a-8" value="InterpTask" style="rounded=1;whiteSpace=wrap;html=1;fillColor=#dae8fc;strokeColor=#6c8ebf;" parent="1" vertex="1">
          <mxGeometry x="30" y="170" width="90" height="30" as="geometry" />
        </mxCell>
        <mxCell id="AYY8qbQIV_LYe4IVPq_a-30" value="" style="edgeStyle=orthogonalEdgeStyle;rounded=0;orthogonalLoop=1;jettySize=auto;html=1;" parent="1" source="AYY8qbQIV_LYe4IVPq_a-9" target="AYY8qbQIV_LYe4IVPq_a-25" edge="1">
          <mxGeometry relative="1" as="geometry" />
        </mxCell>
        <mxCell id="AYY8qbQIV_LYe4IVPq_a-9" value="Plan_Task" style="rounded=1;whiteSpace=wrap;html=1;fillColor=#d5e8d4;strokeColor=#82b366;" parent="1" vertex="1">
          <mxGeometry x="149" y="170" width="90" height="30" as="geometry" />
        </mxCell>
        <mxCell id="AYY8qbQIV_LYe4IVPq_a-31" value="" style="edgeStyle=orthogonalEdgeStyle;rounded=0;orthogonalLoop=1;jettySize=auto;html=1;" parent="1" source="AYY8qbQIV_LYe4IVPq_a-10" target="AYY8qbQIV_LYe4IVPq_a-27" edge="1">
          <mxGeometry relative="1" as="geometry" />
        </mxCell>
        <mxCell id="AYY8qbQIV_LYe4IVPq_a-10" value="ReadOnlineData" style="rounded=1;whiteSpace=wrap;html=1;fillColor=#ffe6cc;strokeColor=#d79b00;" parent="1" vertex="1">
          <mxGeometry x="262" y="170" width="100" height="30" as="geometry" />
        </mxCell>
        <mxCell id="AYY8qbQIV_LYe4IVPq_a-11" value="KeyboardScan" style="rounded=1;whiteSpace=wrap;html=1;fillColor=#fff2cc;strokeColor=#d6b656;" parent="1" vertex="1">
          <mxGeometry x="386" y="170" width="90" height="30" as="geometry" />
        </mxCell>
        <mxCell id="AYY8qbQIV_LYe4IVPq_a-12" value="trajectory_generator_task" style="rounded=1;whiteSpace=wrap;html=1;fillColor=#f8cecc;strokeColor=#b85450;" parent="1" vertex="1">
          <mxGeometry x="489" y="170" width="140" height="30" as="geometry" />
        </mxCell>
        <mxCell id="AYY8qbQIV_LYe4IVPq_a-23" value="LFS_Interpolation" style="rounded=1;whiteSpace=wrap;html=1;fillColor=#dae8fc;strokeColor=#6c8ebf;" parent="1" vertex="1">
          <mxGeometry x="25" y="270" width="100" height="30" as="geometry" />
        </mxCell>
        <mxCell id="AYY8qbQIV_LYe4IVPq_a-24" value="Task_PathPlanning" style="rounded=1;whiteSpace=wrap;html=1;fillColor=#d5e8d4;strokeColor=#82b366;" parent="1" vertex="1">
          <mxGeometry x="138.5" y="270" width="111" height="30" as="geometry" />
        </mxCell>
        <mxCell id="AYY8qbQIV_LYe4IVPq_a-25" value="Plan_Trajectory" style="rounded=1;whiteSpace=wrap;html=1;fillColor=#d5e8d4;strokeColor=#82b366;" parent="1" vertex="1">
          <mxGeometry x="138.5" y="320" width="111" height="30" as="geometry" />
        </mxCell>
        <mxCell id="AYY8qbQIV_LYe4IVPq_a-26" value="stop" style="rounded=1;whiteSpace=wrap;html=1;fillColor=#ffe6cc;strokeColor=#d79b00;" parent="1" vertex="1">
          <mxGeometry x="262" y="270" width="100" height="30" as="geometry" />
        </mxCell>
        <mxCell id="AYY8qbQIV_LYe4IVPq_a-32" value="" style="edgeStyle=orthogonalEdgeStyle;rounded=0;orthogonalLoop=1;jettySize=auto;html=1;" parent="1" source="AYY8qbQIV_LYe4IVPq_a-27" target="AYY8qbQIV_LYe4IVPq_a-28" edge="1">
          <mxGeometry relative="1" as="geometry" />
        </mxCell>
        <mxCell id="AYY8qbQIV_LYe4IVPq_a-27" value="teach" style="rounded=1;whiteSpace=wrap;html=1;fillColor=#ffe6cc;strokeColor=#d79b00;" parent="1" vertex="1">
          <mxGeometry x="262" y="320" width="100" height="30" as="geometry" />
        </mxCell>
        <mxCell id="AYY8qbQIV_LYe4IVPq_a-28" value="auto" style="rounded=1;whiteSpace=wrap;html=1;fillColor=#ffe6cc;strokeColor=#d79b00;" parent="1" vertex="1">
          <mxGeometry x="262" y="370" width="100" height="30" as="geometry" />
        </mxCell>
        <mxCell id="AYY8qbQIV_LYe4IVPq_a-33" value="INTERP" style="rounded=1;whiteSpace=wrap;html=1;fillColor=#008a00;strokeColor=#005700;fontColor=#ffffff;" parent="1" vertex="1">
          <mxGeometry x="640" y="100" width="80" height="30" as="geometry" />
        </mxCell>
      </root>
    </mxGraphModel>
  </diagram>
</mxfile>
